<svg width="327" height="276" viewBox="0 0 327 276" fill="none" xmlns="http://www.w3.org/2000/svg">
<g clip-path="url(#clip0_201_2409)">
<path d="M266.316 133.158C266.316 137.035 266.153 140.872 265.827 144.67C265.57 147.635 265.22 150.574 264.776 153.485C264.304 156.568 263.727 159.614 263.042 162.622V162.626C262.595 164.606 262.104 166.57 261.568 168.517C260.016 174.18 258.084 179.731 255.788 185.135C255.289 186.31 254.773 187.477 254.241 188.637C252.229 193.028 249.977 197.304 247.493 201.446C240.529 213.079 231.835 223.585 221.711 232.603C220.616 233.578 219.505 234.536 218.379 235.478C194.475 255.446 164.305 266.364 133.158 266.316C59.6159 266.316 0 206.7 0 133.158C0 59.6159 59.6159 1.2338e-05 133.158 1.2338e-05C163.232 -0.0474082 192.429 10.1325 215.955 28.8682C217.058 29.742 218.147 30.6355 219.222 31.5487C224.467 35.9976 229.363 40.8435 233.865 46.0435H233.869C254.839 70.2166 266.363 101.156 266.316 133.158Z" fill="#003F91" fill-opacity="0.1"/>
<path d="M39.308 156.159C26.6232 148.609 17.0492 134.5 18.2921 119.791C29.8892 130.891 45.0385 137.53 61.0597 138.535C67.2398 138.901 74.1516 138.663 78.7009 142.862C81.5316 145.475 82.8493 149.409 83.0655 153.255C83.2815 157.101 82.5111 160.926 81.7446 164.701L82.0084 165.626C67.2469 165.682 51.9929 163.709 39.308 156.159Z" fill="#E6E6E6"/>
<path d="M18.6014 119.775C23.6839 130.886 32.1382 140.114 42.7634 146.146C45.0476 147.425 47.476 148.523 50.0566 149.033C52.5758 149.51 55.1769 149.304 57.5895 148.436C59.8553 147.672 62.0845 146.628 64.4966 146.428C67.0391 146.217 69.3929 147.198 71.2422 148.916C73.5049 151.018 74.8773 153.807 76.1246 156.582C77.5096 159.663 78.8992 162.885 81.5545 165.101C81.8762 165.369 81.4409 165.852 81.1197 165.584C76.4999 161.73 75.7459 155.274 72.0531 150.735C70.3299 148.616 67.958 147.004 65.1402 147.047C62.6761 147.084 60.3764 148.159 58.089 148.952C55.687 149.785 53.2809 150.177 50.7451 149.81C48.1512 149.435 45.6747 148.43 43.3679 147.215C38.1573 144.422 33.4184 140.827 29.3246 136.562C24.6254 131.72 20.7891 126.109 17.9817 119.974C17.8081 119.594 18.4289 119.398 18.6014 119.775Z" fill="white"/>
<path d="M39.2278 144.405C37.9736 146.05 36.1755 147.196 34.1544 147.638C32.1334 148.08 30.0211 147.789 28.1948 146.817C27.8259 146.62 28.1161 146.037 28.4854 146.235C30.1845 147.143 32.1521 147.414 34.0333 146.999C35.9144 146.583 37.5851 145.509 38.7439 143.97C38.9961 143.636 39.4786 144.073 39.2278 144.405Z" fill="white"/>
<path d="M56.4917 148.974C55.9639 144.779 53.8739 140.936 50.6387 138.212C50.3179 137.943 50.7531 137.459 51.0735 137.728C54.4349 140.569 56.6017 144.572 57.1414 148.94C57.1925 149.356 56.5426 149.389 56.4917 148.974Z" fill="white"/>
<path d="M25.4322 131.414C26.0501 130.879 26.5253 130.198 26.8152 129.434C27.1051 128.669 27.2005 127.845 27.093 127.034C27.0366 126.619 27.6866 126.587 27.7427 126.999C27.8573 127.895 27.7508 128.806 27.4324 129.651C27.114 130.497 26.5934 131.251 25.9161 131.849C25.857 131.911 25.7766 131.948 25.6912 131.952C25.6059 131.957 25.522 131.929 25.4567 131.874C25.3929 131.816 25.3545 131.735 25.35 131.649C25.3454 131.563 25.3749 131.479 25.4322 131.414Z" fill="white"/>
<path d="M59.352 91.2947C59.3946 91.5531 59.4372 91.8115 59.4847 92.0724C60.0754 95.5438 60.9472 98.9615 62.0913 102.292C62.1757 102.551 62.2651 102.812 62.3567 103.068C65.1988 111.062 69.5004 118.458 75.0427 124.882C77.2504 127.436 79.6493 129.819 82.2185 132.009C85.7669 135.033 89.8549 138.03 92.1299 141.935C92.3718 142.34 92.5885 142.759 92.7786 143.191L83.1161 165.233C83.069 165.272 83.0268 165.313 82.9796 165.353L82.634 166.25C82.4936 166.147 82.3502 166.036 82.2099 165.932C82.1282 165.873 82.0486 165.808 81.9669 165.748C81.9132 165.707 81.8594 165.665 81.8086 165.631C81.7906 165.617 81.7728 165.603 81.7598 165.591C81.7089 165.557 81.6653 165.52 81.6194 165.488C80.8162 164.872 80.016 164.249 79.2187 163.62C79.2136 163.618 79.2136 163.618 79.2108 163.611C73.1478 158.8 67.4332 153.442 62.7136 147.386C62.5717 147.204 62.4246 147.019 62.2871 146.827C60.1749 144.086 58.2903 141.176 56.652 138.128C55.7604 136.455 54.9539 134.739 54.2358 132.986C52.389 128.451 51.267 123.654 50.9109 118.77C50.2024 109.035 52.6154 99.1812 58.8688 91.8501C59.0289 91.6627 59.1869 91.4799 59.352 91.2947Z" fill="#E6E6E6"/>
<path d="M59.61 91.4669C56.9784 103.398 58.1733 115.856 63.0249 127.07C64.0789 129.466 65.3566 131.805 67.1104 133.765C68.8345 135.663 71.0354 137.065 73.4843 137.824C75.7535 138.578 78.162 139.087 80.2083 140.379C82.3653 141.742 83.6541 143.942 84.0963 146.427C84.6373 149.468 84.0535 152.522 83.3788 155.488C82.6297 158.782 81.7995 162.191 82.5857 165.559C82.6809 165.967 82.0422 166.091 81.9471 165.683C80.5793 159.824 83.8638 154.216 83.6485 148.368C83.5481 145.639 82.6247 142.924 80.3492 141.261C78.3594 139.807 75.8763 139.281 73.5721 138.537C71.1526 137.756 68.9958 136.62 67.1918 134.801C65.3465 132.94 63.9746 130.646 62.864 128.287C60.3853 122.92 58.766 117.196 58.0654 111.326C57.2286 104.63 57.5432 97.8413 58.9958 91.2521C59.0858 90.8443 59.6995 91.0617 59.61 91.4669Z" fill="white"/>
<path d="M61.2502 123.551C59.2582 124.11 57.1326 123.942 55.2529 123.078C53.3731 122.214 51.8617 120.71 50.9886 118.834C50.8132 118.454 51.3956 118.164 51.5712 118.544C52.3811 120.292 53.7891 121.693 55.5411 122.494C57.2932 123.295 59.2738 123.444 61.1256 122.912C61.5281 122.797 61.6504 123.437 61.2502 123.551Z" fill="white"/>
<path d="M72.2834 137.593C74.3882 133.925 75.0332 129.599 74.0897 125.476C73.9959 125.068 74.6346 124.944 74.7283 125.352C75.7021 129.643 75.0217 134.145 72.8231 137.957C72.6132 138.32 72.0748 137.955 72.2834 137.593Z" fill="white"/>
<path d="M58.0566 104.872C58.8724 104.817 59.6616 104.56 60.3533 104.124C61.0451 103.688 61.6178 103.087 62.0199 102.375C62.225 102.009 62.7633 102.375 62.5595 102.738C62.1116 103.523 61.4783 104.186 60.7151 104.669C59.9519 105.152 59.0819 105.441 58.1812 105.511C58.0968 105.525 58.0105 105.506 57.9396 105.458C57.8687 105.41 57.8187 105.337 57.7996 105.254C57.7836 105.169 57.8015 105.082 57.8497 105.01C57.8978 104.939 57.9722 104.889 58.0566 104.872Z" fill="white"/>
<path d="M92.2396 30.8621L108.538 221.65L75.9416 224.1V33.2895C79.8257 30.7194 85.4013 30.3173 92.2396 30.8621Z" fill="#CCCCCC"/>
<path d="M172.689 30.8621L156.391 221.65L188.987 224.1V33.2895C185.103 30.7194 179.527 30.3173 172.689 30.8621Z" fill="#CCCCCC"/>
<path d="M184.106 231.986H80.4754C78.8137 231.984 77.2206 231.323 76.0456 230.148C74.8706 228.973 74.2096 227.38 74.2078 225.718V36.0895C74.2097 34.4278 74.8706 32.8347 76.0456 31.6597C77.2206 30.4847 78.8137 29.8237 80.4754 29.8218H184.106C185.768 29.8237 187.361 30.4847 188.536 31.6597C189.711 32.8347 190.372 34.4278 190.374 36.0895V225.718C190.372 227.38 189.711 228.973 188.536 230.148C187.361 231.323 185.768 231.984 184.106 231.986ZM80.4754 31.9024C79.3653 31.9036 78.3011 32.3452 77.5161 33.1301C76.7311 33.9151 76.2896 34.9794 76.2884 36.0895V225.718C76.2896 226.828 76.7311 227.893 77.5161 228.678C78.301 229.463 79.3653 229.904 80.4754 229.905H184.106C185.217 229.904 186.281 229.463 187.066 228.678C187.851 227.893 188.292 226.828 188.294 225.718V36.0895C188.292 34.9794 187.851 33.9151 187.066 33.1301C186.281 32.3452 185.217 31.9036 184.106 31.9024L80.4754 31.9024Z" fill="#CCCCCC"/>
<path d="M189.334 61.3774H75.248V63.458H189.334V61.3774Z" fill="#CCCCCC"/>
<path d="M189.334 96.054H75.248V98.1346H189.334V96.054Z" fill="#CCCCCC"/>
<path d="M112.27 30.8621H110.189V125.529H112.27V30.8621Z" fill="#CCCCCC"/>
<path d="M154.392 30.8621H152.312V125.529H154.392V30.8621Z" fill="#CCCCCC"/>
<path d="M202.338 237.708H65.712C63.2289 237.708 60.8475 236.721 59.0916 234.965C57.3358 233.209 56.3494 230.828 56.3494 228.345C56.3494 225.862 57.3358 223.48 59.0916 221.725C60.8475 219.969 63.2289 218.982 65.712 218.982H202.338C204.821 218.982 207.202 219.969 208.958 221.725C210.714 223.48 211.7 225.862 211.7 228.345C211.7 230.828 210.714 233.209 208.958 234.965C207.202 236.721 204.821 237.708 202.338 237.708Z" fill="#CCCCCC"/>
<path d="M189.334 120.674H75.9416V127.61H189.334V120.674Z" fill="#CCCCCC"/>
<path d="M112.593 142.746L112.449 142.677C104.719 138.943 94.5965 138.946 79.6265 142.689L79.4667 142.729L79.4187 142.571C77.8351 137.379 76.0412 131.497 79.4113 128.604C79.4585 120.113 86.9064 113.219 96.0545 113.219C105.201 113.219 112.648 120.11 112.698 128.598C117.711 132.431 115.322 138.095 112.674 142.608L112.593 142.746Z" fill="#0C0D0F"/>
<path d="M160.104 124.565C159.965 125.253 159.677 125.902 159.261 126.467C158.844 127.032 158.309 127.498 157.692 127.834C157.076 128.169 156.393 128.366 155.693 128.409C154.992 128.452 154.291 128.341 153.638 128.084L126.32 155.535L123.883 147.011L151.014 121.519C151.519 120.451 152.398 119.605 153.485 119.141C154.572 118.678 155.792 118.629 156.912 119.005C158.032 119.38 158.976 120.154 159.564 121.178C160.153 122.203 160.344 123.408 160.104 124.565Z" fill="#FFB6B6"/>
<path d="M92.5891 150.993C92.5891 150.993 90.1106 156.609 96.2261 160.073C102.342 163.537 123.715 158.751 127.183 158.083C130.651 157.415 143.604 138.031 143.604 138.031L141.773 128.524L124.594 143.437L92.5891 150.993Z" fill="#003F91"/>
<path d="M88.0783 182.052L88.4251 188.64C88.4251 188.64 87.4016 194.477 88.2434 195.736C89.0788 196.989 111.876 197.147 111.876 197.147C111.876 197.147 113.382 189.027 114.679 181.92L88.0783 182.052Z" fill="#FFB6B6"/>
<path d="M153.622 269.166L158.388 268.204L157.024 248.954L149.99 250.374L153.622 269.166Z" fill="#FFB6B6"/>
<path d="M160.449 244.115L164.879 242.123L159.132 223.704L152.592 226.645L160.449 244.115Z" fill="#FFB6B6"/>
<path d="M164.308 233.737L155.966 238.461L135.391 205.399C120.948 215.13 106.824 219.79 92.5864 222.277C87.7726 223.134 82.8646 222.699 81.9405 217.8C81.8972 217.571 81.8628 217.34 81.8371 217.109C81.2687 211.757 87.9257 204.897 88.7719 198.35L106.991 197.256L109.238 200.137L130.308 187.183C134.545 184.578 140.118 185.987 142.755 190.33C142.895 190.559 143.024 190.794 143.143 191.035L164.308 233.737Z" fill="#0C0D0F"/>
<path d="M159.202 255.978L149.656 256.865L132.348 221.467C115.185 224.418 98.9926 225.364 84.9872 221.793C80.2453 220.601 77.3467 215.705 78.5131 210.857C78.5676 210.63 78.6306 210.406 78.7022 210.184C80.3784 205.07 84.766 201.452 88.2229 195.827L113.473 196.211L110.653 205.942L135.182 202.768C140.115 202.129 144.62 205.7 145.244 210.742C145.277 211.009 145.299 211.276 145.309 211.545L159.202 255.978Z" fill="#0C0D0F"/>
<path d="M97.9377 137.713C103.6 137.713 108.191 133.123 108.191 127.46C108.191 121.798 103.6 117.207 97.9377 117.207C92.2751 117.207 87.6846 121.798 87.6846 127.46C87.6846 133.123 92.2751 137.713 97.9377 137.713Z" fill="#FFB6B6"/>
<path d="M91.9268 141.415L101.328 142.521C101.724 142.568 102.096 142.737 102.392 143.005C102.688 143.273 102.893 143.627 102.978 144.017L104.473 150.858L113.793 161.833C113.793 161.833 117.14 168.108 115.885 175.22C114.63 182.332 114.078 187.616 114.078 187.616C114.078 187.616 89.0776 196.99 88.241 195.735C87.4043 194.48 87.1328 188.779 87.1328 188.779L83.7861 151.547C83.7861 151.547 87.5511 145.272 89.6428 145.272C90.9928 145.227 90.8196 142.188 91.9268 141.415Z" fill="#003F91"/>
<path d="M114.332 189.905C115.651 189.905 116.719 188.623 116.719 187.041C116.719 185.459 115.651 184.176 114.332 184.176C113.014 184.176 111.945 185.459 111.945 187.041C111.945 188.623 113.014 189.905 114.332 189.905Z" fill="#003F91"/>
<path d="M151.257 264.21L158.523 260.569L159.892 263.763L169.08 265.621C169.534 265.712 169.947 265.947 170.258 266.29C170.569 266.632 170.763 267.066 170.81 267.526C170.858 267.987 170.757 268.45 170.522 268.849C170.287 269.249 169.931 269.562 169.506 269.745L160.628 273.55L157.743 271.046L158.5 274.462L155.153 275.897L151.257 264.21Z" fill="#0C0D0F"/>
<path d="M158.369 242.583L165.57 238.814L166.995 241.984L176.215 243.68C176.67 243.763 177.087 243.99 177.404 244.328C177.721 244.665 177.922 245.095 177.978 245.554C178.033 246.014 177.941 246.479 177.713 246.883C177.485 247.286 177.135 247.606 176.713 247.795L167.903 251.756L164.975 249.303L165.792 252.706L162.471 254.199L158.369 242.583Z" fill="#0C0D0F"/>
<path d="M92.0797 124.244C89.3709 124.249 86.7272 123.415 84.5113 121.857L84.4373 121.805V121.715C84.4403 119.094 85.4825 116.582 87.3352 114.73C89.188 112.877 91.7 111.835 94.3202 111.832H98.4813C101.102 111.835 103.614 112.877 105.466 114.73C107.319 116.582 108.361 119.094 108.364 121.715C108.361 122.314 108.125 122.889 107.704 123.317C107.284 123.745 106.713 123.991 106.114 124.004L92.3136 124.242C92.2357 124.244 92.1574 124.244 92.0797 124.244Z" fill="#0C0D0F"/>
<path d="M109.058 119.817C110.385 119.05 110.606 116.95 109.553 115.126C108.5 113.302 106.57 112.444 105.243 113.21C103.916 113.976 103.695 116.076 104.748 117.9C105.801 119.725 107.731 120.583 109.058 119.817Z" fill="#0C0D0F"/>
<path d="M88.3062 117.781C89.7958 116.292 90.1252 114.206 89.0418 113.122C87.9584 112.039 85.8726 112.368 84.383 113.858C82.8934 115.348 82.564 117.433 83.6474 118.517C84.7308 119.6 86.8166 119.271 88.3062 117.781Z" fill="#0C0D0F"/>
<path d="M179.048 211.527H168.814C168.583 211.526 168.355 211.576 168.146 211.673C167.936 211.77 167.75 211.911 167.601 212.088C167.224 212.018 166.835 212.039 166.467 212.149C166.1 212.259 165.763 212.455 165.486 212.72C165.208 212.985 164.998 213.312 164.871 213.675C164.745 214.037 164.706 214.424 164.758 214.804C164.81 215.185 164.952 215.547 165.171 215.862C165.39 216.177 165.681 216.435 166.02 216.616C166.358 216.797 166.735 216.894 167.119 216.901C167.502 216.908 167.882 216.824 168.227 216.656L169.076 219.414C169.177 219.741 169.379 220.027 169.654 220.23C169.929 220.433 170.262 220.543 170.604 220.543H177.258C177.6 220.543 177.933 220.433 178.208 220.23C178.483 220.027 178.686 219.741 178.786 219.414L180.577 213.596C180.65 213.357 180.667 213.104 180.625 212.857C180.583 212.611 180.483 212.377 180.334 212.176C180.186 211.975 179.992 211.811 179.769 211.698C179.545 211.586 179.298 211.527 179.048 211.527ZM167.169 216.208C166.709 216.208 166.268 216.025 165.943 215.7C165.618 215.375 165.435 214.934 165.435 214.474C165.435 214.014 165.618 213.573 165.943 213.248C166.268 212.923 166.709 212.74 167.169 212.74C167.201 212.74 167.23 212.748 167.262 212.75C167.193 213.029 167.201 213.322 167.286 213.596L168.018 215.977C167.76 216.126 167.468 216.206 167.169 216.208Z" fill="#0C0D0F"/>
<path d="M133.349 203.999C132.651 204.064 131.946 203.975 131.285 203.738C130.625 203.5 130.024 203.121 129.526 202.627C129.028 202.133 128.644 201.535 128.402 200.877C128.159 200.218 128.064 199.514 128.124 198.815L93.9884 180.522L101.455 175.742L133.66 194.418C134.828 194.595 135.891 195.195 136.646 196.103C137.402 197.012 137.798 198.166 137.76 199.347C137.722 200.528 137.252 201.654 136.439 202.511C135.626 203.369 134.527 203.898 133.349 203.999Z" fill="#FFB6B6"/>
<path d="M88.6618 146.906C88.6618 146.906 82.5704 146.143 81.007 152.995C79.4436 159.847 90.1601 178.949 91.7952 182.08C93.4304 185.21 115.716 192.057 115.716 192.057L124.297 187.575L105.083 175.397L88.6618 146.906Z" fill="#003F91"/>
<path d="M131.597 118.594H133.678C134.69 118.594 135.66 118.996 136.375 119.711C137.091 120.426 137.492 121.396 137.492 122.408H127.783C127.783 121.396 128.185 120.426 128.9 119.711C129.616 118.996 130.586 118.594 131.597 118.594Z" fill="#CCCCCC"/>
<path d="M65.6224 47.4255C77.0063 47.4255 86.2348 38.1971 86.2348 26.8132C86.2348 15.4293 77.0063 6.20078 65.6224 6.20078C54.2385 6.20078 45.01 15.4293 45.01 26.8132C45.01 38.1971 54.2385 47.4255 65.6224 47.4255Z" fill="#FF6584"/>
<path d="M128.733 25.739C123.278 20.0165 116.942 14.7961 109.442 12.0374C107.353 11.2657 105.187 10.7214 102.981 10.4138C102.963 10.4114 102.946 10.4149 102.929 10.4135C102.893 10.4043 102.857 10.3971 102.82 10.3921C99.7348 9.99911 96.6035 10.1882 93.5882 10.9495C92.1136 11.3195 90.6751 11.8206 89.2898 12.4468C87.8996 13.1251 86.5526 13.8884 85.2565 14.7326C82.513 16.3748 79.4924 17.5017 76.3437 18.0576C74.7632 18.3422 73.1624 18.4993 71.5568 18.5274C70.1636 18.5554 68.8497 18.6038 67.5297 19.1071C66.1197 19.6373 64.8531 20.4898 63.831 21.5965C62.809 22.7031 62.0597 24.0333 61.6431 25.481C61.611 25.6099 61.6206 25.7457 61.6707 25.8688C61.7208 25.9918 61.8087 26.0958 61.9217 26.1656C62.2787 26.4214 62.6268 26.7115 63.002 26.9394C63.3357 27.0921 63.6922 27.1893 64.0572 27.2272C64.6537 27.353 65.2509 27.4752 65.8489 27.5937C68.0518 28.0302 70.2639 28.4166 72.4851 28.7528C76.9797 29.4332 81.4985 29.9125 86.0416 30.1907C95.1428 30.7419 104.275 30.4675 113.327 29.3706C118.414 28.7545 123.466 27.8806 128.465 26.7523C128.566 26.7227 128.658 26.6675 128.732 26.5919C128.805 26.5164 128.858 26.4231 128.885 26.3212C128.912 26.2192 128.912 26.1121 128.885 26.0101C128.859 25.9081 128.806 25.8147 128.733 25.739Z" fill="#E6E6E6"/>
<path d="M66.6007 39.5206C64.5115 38.7489 62.3453 38.2045 60.1396 37.8969C60.1218 37.8945 60.105 37.8981 60.0874 37.8967C60.0515 37.8874 60.0151 37.8803 59.9784 37.8753C56.8934 37.4823 53.7621 37.6713 50.7468 38.4326C49.2722 38.8026 47.8337 39.3038 46.4484 39.93C45.0582 40.6082 43.7112 41.3716 42.4151 42.2158C39.6716 43.858 36.6511 44.9848 33.5023 45.5408C31.9218 45.8253 30.321 45.9824 28.7154 46.0106C27.3222 46.0385 26.0083 46.0869 24.6883 46.5903C23.2783 47.1205 22.0117 47.9729 20.9896 49.0796C19.9676 50.1863 19.2183 51.5165 18.8017 52.9641C18.7696 53.093 18.7792 53.2288 18.8293 53.3519C18.8794 53.4749 18.9673 53.5789 19.0803 53.6488C19.4373 53.9045 19.7854 54.1947 20.1606 54.4225C20.4943 54.5752 20.8508 54.6725 21.2158 54.7103C21.8123 54.8362 22.4095 54.9583 23.0075 55.0768C25.2104 55.5133 27.4225 55.8997 29.6437 56.2359C34.1383 56.9163 38.6571 57.3956 43.2002 57.6738C52.3014 58.2251 61.4338 57.9506 70.4855 56.8537C75.5726 56.2376 80.6251 55.3637 85.6236 54.2354C85.7248 54.2058 85.8167 54.1506 85.8902 54.075C85.9638 53.9995 86.0166 53.9063 86.0435 53.8043C86.0705 53.7024 86.0706 53.5952 86.0439 53.4932C86.0172 53.3912 85.9646 53.2978 85.8912 53.2221C80.4361 47.4997 74.1007 42.2793 66.6007 39.5206Z" fill="#E6E6E6"/>
<path d="M215.245 193.183L199.394 172.359L186.887 179.431L213.39 210.904L215.245 193.183Z" fill="#0C0D0F"/>
<path d="M251.758 159.332C252.111 168.058 253.463 176.716 255.788 185.134C255.289 186.31 254.773 187.477 254.241 188.637C252.229 193.028 249.977 197.304 247.493 201.446C240.529 213.079 231.835 223.585 221.711 232.603C220.616 233.578 219.505 234.536 218.379 235.478C211.96 226.628 208.496 216.863 207.126 206.814C206.953 205.538 206.811 204.248 206.703 202.965V202.958C206.44 199.84 206.356 196.709 206.45 193.582C206.454 193.332 206.461 193.079 206.471 192.826C206.592 189.483 206.894 186.133 207.348 182.815V182.811C207.4 182.43 207.452 182.048 207.511 181.667C207.678 180.522 207.865 179.378 208.07 178.241C209.26 171.681 210.922 165.216 213.042 158.895V158.891C213.101 158.707 213.16 158.527 213.226 158.347C213.455 157.66 213.687 156.981 213.926 156.301C213.941 156.248 213.96 156.196 213.982 156.145C214.291 155.257 214.606 154.376 214.929 153.503C215.015 153.26 215.105 153.017 215.199 152.774C215.563 151.8 215.934 150.832 216.312 149.879C216.43 149.574 216.551 149.269 216.673 148.967C216.766 148.735 216.857 148.502 216.954 148.273V148.27C217.505 146.907 218.063 145.571 218.629 144.261C220.213 140.579 221.843 137.114 223.431 133.921L223.435 133.917C230.027 120.695 236.019 112.109 236.019 112.109L258.52 119.391C255.836 124.152 253.759 131.174 252.622 139.459C251.746 146.043 251.457 152.693 251.759 159.328L251.758 159.332Z" fill="#0C0D0F"/>
<path d="M214.36 157.213C214.228 156.904 214.079 156.603 213.926 156.301C213.135 154.769 212.117 153.366 210.906 152.14C210.726 151.956 210.538 151.772 210.344 151.599C208.256 149.675 205.716 148.309 202.959 147.626C200.203 146.944 197.318 146.967 194.573 147.694L194.56 147.701L194.456 147.729L194.48 147.847C194.584 148.396 194.735 148.936 194.931 149.459C194.983 149.601 195.042 149.737 195.101 149.872C195.125 149.934 195.156 149.99 195.184 150.052C195.184 150.052 195.18 150.056 195.187 150.056C195.187 150.059 195.191 150.063 195.191 150.066C195.257 150.194 195.319 150.326 195.388 150.451C195.246 150.316 195.111 150.177 194.979 150.035C194.851 149.903 194.733 149.764 194.615 149.626C194.211 149.154 193.846 148.651 193.523 148.121L193.467 148.027L193.37 148.065C192.062 148.519 190.813 149.13 189.653 149.886L189.528 149.969C188.642 150.551 187.644 150.94 186.597 151.111C185.551 151.281 184.481 151.23 183.456 150.961C181.84 150.544 180.155 150.468 178.508 150.737C176.861 151.006 175.288 151.615 173.889 152.525C172.962 153.129 172.124 153.86 171.399 154.695C171.337 154.768 171.274 154.845 171.212 154.917C171.08 155.077 170.955 155.24 170.834 155.406C169.53 157.149 168.73 159.215 168.521 161.381L168.514 161.461L168.58 161.506C169.753 162.31 171.08 162.863 172.478 163.129C171.6 163.251 170.711 163.273 169.828 163.195H169.825C169.424 163.162 169.026 163.106 168.632 163.028L168.559 163.014H168.556L168.465 162.997L168.479 163.163C168.583 165.282 169.25 167.335 170.411 169.111L170.445 169.159C170.458 169.177 170.47 169.195 170.48 169.215C170.972 169.967 171.381 170.77 171.701 171.611C172.512 173.699 172.69 175.979 172.214 178.168C171.675 180.509 171.854 182.958 172.728 185.196C173.601 187.434 175.128 189.357 177.11 190.714C178.851 191.912 180.88 192.624 182.988 192.777C183.276 192.802 183.567 192.815 183.858 192.815C185.526 192.821 187.176 192.477 188.703 191.806L188.758 191.785L188.772 191.723C189.066 190.776 189.478 189.869 190 189.025C189.829 189.69 189.743 190.374 189.743 191.061V191.29L189.941 191.175C190.111 191.075 190.284 190.967 190.44 190.867C191.377 190.255 192.225 189.518 192.961 188.675C193.249 188.342 193.54 188.02 193.845 187.697L193.849 187.694C194.442 187.063 195.069 186.445 195.721 185.856C197.108 184.61 198.592 183.477 200.16 182.468C201.726 181.462 203.364 180.572 205.06 179.805H205.063C205.254 179.715 205.448 179.628 205.639 179.545C206.483 179.177 207.296 178.741 208.07 178.241C208.097 178.223 208.122 178.21 208.146 178.192C211.498 175.997 213.962 172.684 215.1 168.842C216.238 165 215.976 160.879 214.36 157.213Z" fill="#003F91"/>
<path opacity="0.15" d="M172.785 183.091C172.691 183.513 172.619 183.94 172.571 184.369C171.925 182.329 171.831 180.154 172.299 178.066C172.372 177.746 172.426 177.423 172.468 177.098C173.109 179.032 173.218 181.101 172.785 183.091Z" fill="#0C0D0F"/>
<path opacity="0.15" d="M173.048 168.05C172.02 168.192 170.979 168.197 169.95 168.064C169.681 167.556 169.448 167.03 169.255 166.488C170.4 167.261 171.69 167.792 173.048 168.05Z" fill="#0C0D0F"/>
<path opacity="0.15" d="M169.868 163.083C169.489 164.053 169.237 165.068 169.119 166.102C168.802 165.117 168.615 164.095 168.563 163.061L168.554 162.895L168.718 162.926C169.099 162.998 169.482 163.05 169.868 163.083Z" fill="#0C0D0F"/>
<path opacity="0.15" d="M173.978 152.422C175.376 151.511 176.948 150.901 178.594 150.632C180.241 150.362 181.925 150.438 183.54 150.856C184.566 151.127 185.637 151.179 186.683 151.008C187.73 150.838 188.729 150.448 189.615 149.866L189.741 149.783C190.9 149.026 192.148 148.413 193.456 147.958L193.556 147.924L193.61 148.014C194.128 148.869 194.754 149.653 195.475 150.346C195.037 149.531 194.731 148.652 194.567 147.742L194.543 147.622L194.661 147.59C197.236 146.909 199.935 146.846 202.539 147.406C205.143 147.967 207.577 149.135 209.643 150.815C211.709 152.495 213.349 154.64 214.429 157.075C215.508 159.51 215.997 162.165 215.854 164.825C215.308 162.657 214.337 160.618 212.998 158.828C211.658 157.038 209.977 155.531 208.051 154.396C206.125 153.26 203.992 152.518 201.777 152.213C199.562 151.907 197.309 152.044 195.147 152.616L195.029 152.647L195.053 152.767C195.217 153.678 195.523 154.557 195.961 155.372C195.24 154.679 194.614 153.895 194.096 153.04L194.042 152.949L193.942 152.984C192.634 153.438 191.386 154.051 190.226 154.809L190.101 154.891C189.215 155.474 188.216 155.863 187.169 156.034C186.122 156.204 185.051 156.152 184.026 155.881C181.342 155.185 178.499 155.441 175.982 156.606C173.465 157.771 171.431 159.773 170.225 162.271C169.688 162.013 169.168 161.722 168.667 161.401L168.599 161.357L168.607 161.278C168.779 159.493 169.352 157.77 170.282 156.237C171.212 154.703 172.475 153.399 173.978 152.422Z" fill="#0C0D0F"/>
<path d="M302.893 63.8187L302.563 63.6002L302.324 63.9123C300.472 66.2438 298.999 68.8521 297.958 71.6417C298.102 68.4281 298.664 65.2469 299.63 62.1785L299.734 61.856L299.435 61.6861C295.555 59.4891 291.421 57.7749 287.125 56.5817L286.657 56.4568C283.364 55.5534 280.299 53.966 277.661 51.7983C275.023 49.6306 272.872 46.9312 271.347 43.8762C267.804 36.8648 262.208 31.1006 255.304 27.3528C248.4 23.6049 240.517 22.0517 232.707 22.9004H232.704C232.621 22.9073 232.534 22.9177 232.451 22.9281C232.308 22.942 232.17 22.9593 232.031 22.9767C231.747 23.0148 231.469 23.0529 231.192 23.0946C230.956 23.1292 230.717 23.1674 230.481 23.209C230.356 23.2263 230.235 23.2471 230.113 23.2714C229.992 23.2922 229.867 23.313 229.746 23.3373H229.742C227.414 23.7777 225.132 24.4336 222.925 25.2965H222.922V25.3L222.363 25.5184C221.788 25.7542 221.217 26.0039 220.65 26.2674C220.522 26.3264 220.397 26.3888 220.269 26.4478C220.234 26.4651 220.196 26.4824 220.161 26.5032C219.797 26.6766 219.437 26.8569 219.079 27.0477C219.027 27.0719 218.975 27.0997 218.923 27.1274L218.59 27.3043C217.859 27.6996 217.14 28.1192 216.434 28.563C216.375 28.5977 216.319 28.6324 216.26 28.6705C216.198 28.7121 216.132 28.7537 216.069 28.7954C216.031 28.8162 215.993 28.8439 215.955 28.8682C215.848 28.9341 215.743 29.0034 215.639 29.0762C215.431 29.2115 215.223 29.3502 215.019 29.4924C214.807 29.6345 214.599 29.7836 214.391 29.9327L214.183 30.0819L214.221 30.3385C214.256 30.55 214.287 30.7615 214.325 30.9696C214.36 31.1776 214.395 31.3822 214.433 31.5868C214.492 31.9301 214.558 32.2699 214.623 32.5994C214.669 32.8178 214.71 33.0328 214.759 33.2444C214.804 33.4628 214.852 33.6813 214.904 33.8997C215.005 34.3505 215.112 34.7875 215.227 35.2175C215.282 35.4324 215.341 35.6474 215.404 35.859C215.438 35.9873 215.473 36.1156 215.511 36.2404C215.539 36.3271 215.567 36.4138 215.594 36.5005C215.601 36.5282 215.608 36.5594 215.619 36.5906C215.626 36.62 215.636 36.649 215.646 36.6773C215.685 36.8057 215.723 36.9305 215.761 37.0518C215.782 37.1177 215.802 37.1836 215.827 37.246C215.875 37.3951 215.927 37.5477 215.979 37.6934C216.035 37.8598 216.094 38.0262 216.153 38.1892C216.167 38.2308 216.18 38.269 216.194 38.3106C216.205 38.3418 216.215 38.373 216.229 38.4042C216.243 38.4389 216.257 38.477 216.271 38.5117C216.33 38.6678 216.388 38.8273 216.451 38.9833C216.472 39.0388 216.493 39.0978 216.517 39.1532C217.079 40.5659 217.77 41.924 218.58 43.2104C217.682 42.4406 216.817 41.6245 215.986 40.7622C214.703 39.429 213.521 38.0021 212.449 36.4935C212.363 36.3756 212.276 36.2543 212.196 36.1329C212.033 35.9006 211.874 35.6682 211.718 35.4324C211.551 35.1897 211.392 34.9366 211.236 34.6869C211.132 34.5205 211.027 34.3505 210.927 34.1841C210.826 34.0246 210.733 33.8685 210.643 33.709L210.372 33.2444H210.369V33.2478L209.987 33.6223C209.835 33.7714 209.682 33.9205 209.533 34.0696C204.872 38.759 201.496 44.5686 199.73 50.9398L199.678 51.1305L199.626 51.3281C199.525 51.6818 199.425 52.0251 199.317 52.3754V52.3788C199.213 52.7256 199.102 53.0724 198.984 53.4122C198.877 53.7347 198.766 54.0537 198.648 54.3727C198.61 54.4802 198.568 54.5877 198.523 54.6952C198.45 54.9033 198.371 55.1079 198.291 55.3159C198.253 55.4096 198.215 55.5067 198.176 55.6003C198.083 55.8292 197.989 56.058 197.896 56.2834C197.882 56.3181 197.864 56.3562 197.847 56.3909C197.819 56.4603 197.788 56.5296 197.76 56.5955C197.687 56.762 197.611 56.9319 197.538 57.0983C197.486 57.2058 197.438 57.3168 197.389 57.4243C197.368 57.4728 197.344 57.5214 197.323 57.5699C197.195 57.8473 197.063 58.1213 196.925 58.3918C196.769 58.7108 196.609 59.0298 196.439 59.3419C196.29 59.6332 196.134 59.9175 195.971 60.2019C195.69 60.7047 195.395 61.204 195.09 61.6895C194.972 61.8768 194.854 62.064 194.733 62.2513C194.705 62.2964 194.678 62.3414 194.65 62.383C194.549 62.546 194.445 62.7021 194.338 62.8616C194.265 62.9691 194.192 63.0766 194.119 63.1806C193.998 63.3679 193.87 63.5482 193.738 63.725C193.703 63.7805 193.665 63.8325 193.627 63.8845C193.433 64.155 193.238 64.4186 193.041 64.6821C193.034 64.6856 193.034 64.689 193.03 64.6925C193.023 64.6925 193.023 64.696 193.02 64.6994C192.933 64.8139 192.847 64.9283 192.756 65.0393C192.639 65.2022 192.51 65.3618 192.382 65.5178C192.174 65.7813 191.955 66.0484 191.733 66.3084C191.727 66.3154 191.723 66.3223 191.716 66.3258C190.567 67.6757 189.323 68.9412 187.992 70.1124C187.968 70.1333 187.95 70.1541 187.926 70.1714C187.739 70.3344 187.552 70.4974 187.357 70.6569C187.278 70.7228 187.198 70.7886 187.118 70.8545C186.986 70.9655 186.851 71.0765 186.719 71.177C186.704 71.1929 186.686 71.2069 186.667 71.2186C186.549 71.3157 186.435 71.4059 186.317 71.496C186.175 71.6105 186.033 71.718 185.887 71.8255C185.2 72.3456 184.495 72.8369 183.772 73.2992C183.664 73.372 183.55 73.4449 183.439 73.5142C183.373 73.5558 183.307 73.5974 183.245 73.6321C182.981 73.7951 182.718 73.9546 182.454 74.1072C182.191 74.2632 181.92 74.4123 181.653 74.558C181.081 74.8701 180.516 75.196 179.964 75.5359C179.687 75.7092 179.409 75.8826 179.136 76.0595C178.047 76.7669 176.998 77.524 175.99 78.3308C174.983 79.1381 174.016 79.9957 173.095 80.9003C172.98 81.0113 172.866 81.1257 172.752 81.2436C172.523 81.469 172.301 81.6979 172.089 81.9267C171.749 82.277 171.423 82.6376 171.101 83.0017C169.4 84.9312 167.895 87.0243 166.607 89.2504C165.96 90.362 165.372 91.5067 164.845 92.6799C164.447 93.5572 164.082 94.4554 163.753 95.3639C163.535 95.9707 163.33 96.5833 163.139 97.2017C163.046 97.5103 162.955 97.8224 162.869 98.1345C162.574 99.1922 162.328 100.26 162.127 101.332C161.964 102.192 161.832 103.053 161.731 103.915C161.679 104.349 161.638 104.782 161.6 105.212C161.51 106.269 161.465 107.327 161.463 108.386C161.457 111.562 161.843 114.728 162.612 117.81C162.782 118.49 162.97 119.166 163.177 119.839C163.281 120.175 163.392 120.508 163.503 120.841C163.784 121.673 164.095 122.497 164.436 123.313C164.641 123.802 164.856 124.288 165.081 124.77C166.514 127.834 168.342 130.697 170.518 133.286C170.876 133.713 171.244 134.132 171.625 134.545C171.628 134.545 171.625 134.548 171.625 134.548C172.568 135.578 173.567 136.555 174.617 137.475H174.621C175.04 137.846 175.467 138.206 175.9 138.553C175.904 138.55 175.904 138.553 175.904 138.553C176.341 138.907 176.781 139.247 177.232 139.576C177.457 139.739 177.686 139.902 177.918 140.065C178.373 140.388 178.836 140.699 179.309 140.998H179.312C179.784 141.303 180.263 141.595 180.748 141.872C181.722 142.43 182.721 142.954 183.747 143.429L183.921 143.509L184.098 143.429C185.744 142.688 187.44 142.066 189.174 141.567C189.556 141.456 189.941 141.355 190.322 141.258C191.286 141.019 192.257 140.818 193.235 140.655C192.282 141.133 191.362 141.674 190.482 142.274C189.799 142.735 189.126 143.238 188.45 143.793C188.224 143.977 187.999 144.168 187.773 144.362L187.212 144.847L187.916 145.08C188.172 145.163 188.429 145.246 188.685 145.322C189.036 145.433 189.382 145.534 189.722 145.628C190.464 145.836 191.211 146.019 191.962 146.179C192.146 146.217 192.326 146.255 192.51 146.293C192.867 146.363 193.228 146.432 193.589 146.494C193.603 146.498 193.619 146.5 193.634 146.501C194.008 146.564 194.386 146.623 194.761 146.675C195.458 146.775 196.155 146.855 196.852 146.914C196.928 146.924 197.004 146.928 197.084 146.931C197.254 146.945 197.42 146.959 197.59 146.969C197.965 146.994 198.343 147.011 198.721 147.025C198.749 147.025 198.773 147.028 198.801 147.028C198.991 147.035 199.182 147.042 199.373 147.046C199.373 147.046 199.373 147.049 199.376 147.046C199.567 147.049 199.758 147.053 199.948 147.053H201.003C201.2 147.053 201.398 147.056 201.599 147.056C201.876 147.056 202.157 147.06 202.435 147.063C202.508 147.063 202.584 147.067 202.66 147.067C203.104 147.074 203.548 147.084 203.992 147.094C204.019 147.094 204.047 147.098 204.075 147.098C204.519 147.112 204.963 147.126 205.406 147.146C205.504 147.15 205.601 147.153 205.701 147.16C206.128 147.178 206.554 147.198 206.981 147.223C207.102 147.23 207.227 147.24 207.352 147.247C207.674 147.264 208 147.285 208.323 147.309C208.513 147.32 208.701 147.334 208.891 147.351C209.661 147.41 210.428 147.476 211.197 147.552C211.454 147.573 211.711 147.601 211.967 147.628C212.654 147.701 213.343 147.781 214.034 147.868C214.343 147.902 214.651 147.944 214.96 147.985C214.995 147.989 215.029 147.992 215.064 147.999C215.445 148.051 215.823 148.103 216.205 148.159C216.454 148.194 216.704 148.232 216.954 148.27C217.21 148.308 217.467 148.346 217.724 148.391C217.862 148.412 218.001 148.436 218.143 148.461C218.476 148.513 218.812 148.568 219.149 148.63C219.179 148.633 219.209 148.638 219.239 148.644C219.953 148.769 220.671 148.901 221.385 149.043C221.805 149.123 222.221 149.206 222.637 149.293C222.963 149.359 223.289 149.428 223.615 149.497C223.671 149.508 223.726 149.522 223.782 149.536C223.794 149.539 223.807 149.542 223.82 149.542C224.312 149.65 224.808 149.761 225.3 149.879C227.01 150.274 228.717 150.713 230.422 151.197C230.814 151.304 231.206 151.418 231.598 151.533C231.764 151.581 231.927 151.63 232.09 151.679C232.43 151.779 232.766 151.88 233.106 151.987C233.404 152.077 233.706 152.171 234.004 152.268C234.191 152.327 234.379 152.386 234.566 152.448C234.857 152.539 235.149 152.632 235.436 152.733C235.683 152.809 235.925 152.889 236.168 152.975C236.515 153.09 236.865 153.208 237.212 153.333C237.312 153.367 237.416 153.402 237.517 153.44C237.94 153.586 238.363 153.735 238.786 153.891C239.199 154.04 239.611 154.193 240.021 154.345C240.305 154.453 240.589 154.557 240.87 154.668C241.186 154.789 241.501 154.91 241.813 155.035C242.264 155.212 242.718 155.392 243.169 155.576C243.585 155.743 243.998 155.913 244.414 156.089C244.49 156.121 244.57 156.152 244.646 156.187C245.007 156.336 245.368 156.492 245.725 156.648C245.957 156.745 246.186 156.845 246.415 156.946C247.414 157.383 248.411 157.835 249.408 158.302H249.411C250.035 158.597 250.67 158.877 251.308 159.144C251.457 159.207 251.606 159.269 251.759 159.328C252.012 159.436 252.268 159.536 252.525 159.64C252.691 159.706 252.858 159.772 253.028 159.834C253.274 159.932 253.524 160.025 253.773 160.115C254.037 160.212 254.297 160.31 254.564 160.4C254.658 160.434 254.751 160.466 254.848 160.5C255.157 160.604 255.466 160.708 255.778 160.809C255.809 160.819 255.84 160.83 255.875 160.84C256.201 160.944 256.527 161.048 256.856 161.145C256.882 161.155 256.909 161.163 256.936 161.17C257.29 161.277 257.65 161.381 258.007 161.482C258.534 161.627 259.065 161.766 259.595 161.894C259.693 161.919 259.79 161.943 259.887 161.964C260.171 162.033 260.452 162.099 260.736 162.161C261.038 162.231 261.343 162.293 261.645 162.355C261.95 162.418 262.255 162.48 262.557 162.536C262.72 162.567 262.883 162.598 263.042 162.626L263.469 162.699C263.764 162.751 264.058 162.796 264.357 162.844C264.365 162.844 264.373 162.845 264.381 162.848C264.717 162.9 265.05 162.948 265.386 162.99C265.709 163.035 266.031 163.073 266.354 163.111C266.42 163.118 266.489 163.125 266.559 163.132C266.826 163.163 267.093 163.195 267.36 163.219C267.436 163.226 267.512 163.233 267.588 163.24C267.852 163.264 268.116 163.288 268.379 163.306C268.432 163.313 268.485 163.316 268.539 163.316C268.774 163.337 269.01 163.354 269.246 163.365C269.412 163.378 269.575 163.385 269.742 163.396C269.829 163.399 269.912 163.403 269.998 163.406C270.227 163.42 270.456 163.427 270.688 163.434C270.969 163.444 271.25 163.451 271.528 163.458C271.864 163.465 272.204 163.469 272.54 163.469H272.547C272.877 163.469 273.21 163.465 273.539 163.458H273.664L274.028 163.448C274.215 163.444 274.402 163.437 274.586 163.43C274.94 163.417 275.29 163.399 275.64 163.378C275.779 163.372 275.921 163.361 276.06 163.354C276.122 163.351 276.188 163.344 276.251 163.34C276.469 163.326 276.684 163.313 276.903 163.295C277.128 163.278 277.357 163.257 277.582 163.233C277.874 163.205 278.165 163.174 278.456 163.143C278.685 163.118 278.914 163.091 279.139 163.063C279.17 163.06 279.2 163.056 279.229 163.049C279.448 163.025 279.666 162.997 279.881 162.966C280.138 162.931 280.391 162.893 280.644 162.855C280.672 162.851 280.696 162.848 280.724 162.844C281.161 162.775 281.601 162.706 282.042 162.626C282.503 162.543 282.964 162.453 283.422 162.359C283.592 162.324 283.758 162.286 283.928 162.251C284.022 162.231 284.119 162.213 284.209 162.193C284.351 162.161 284.49 162.13 284.629 162.095C284.653 162.092 284.681 162.085 284.705 162.082C284.899 162.04 285.09 161.991 285.284 161.943C285.672 161.849 286.054 161.752 286.435 161.648C286.605 161.606 286.775 161.561 286.938 161.516C286.987 161.502 287.035 161.489 287.08 161.475C287.784 161.277 288.482 161.068 289.175 160.847C289.48 160.75 289.781 160.649 290.083 160.542C290.732 160.32 291.374 160.086 292.011 159.841C292.181 159.779 292.351 159.71 292.521 159.644C292.771 159.543 293.02 159.443 293.266 159.342C293.488 159.248 293.71 159.155 293.936 159.058C294.047 159.013 294.158 158.964 294.269 158.916C294.602 158.77 294.934 158.621 295.264 158.472C295.486 158.368 295.704 158.267 295.923 158.163C296.269 157.997 296.613 157.827 296.956 157.657C297.043 157.612 297.126 157.567 297.209 157.525C297.428 157.414 297.646 157.3 297.868 157.189C298.218 157.001 298.568 156.814 298.915 156.62C299.033 156.558 299.148 156.492 299.266 156.426C299.647 156.211 300.025 155.992 300.399 155.77C301.228 155.275 302.045 154.757 302.851 154.217C303.052 154.085 303.253 153.946 303.451 153.811C303.825 153.555 304.193 153.291 304.561 153.028C304.599 153 304.633 152.972 304.672 152.948C304.855 152.813 305.039 152.677 305.223 152.539C305.604 152.251 305.982 151.959 306.36 151.661C306.367 151.658 306.378 151.647 306.388 151.64C306.558 151.505 306.728 151.37 306.894 151.235C307.411 150.815 307.921 150.389 308.42 149.948C308.666 149.737 308.909 149.518 309.148 149.3C309.329 149.137 309.509 148.974 309.686 148.807C310.043 148.471 310.393 148.138 310.74 147.798C310.913 147.632 311.083 147.458 311.257 147.285C311.427 147.112 311.6 146.938 311.77 146.761C311.829 146.703 311.888 146.64 311.947 146.578C312.12 146.394 312.293 146.207 312.467 146.023C312.616 145.863 312.762 145.697 312.911 145.53C313.16 145.253 313.414 144.976 313.66 144.695C313.673 144.679 313.687 144.664 313.701 144.65C313.715 144.632 313.729 144.618 313.739 144.605H313.736C318.776 138.776 322.521 131.943 324.723 124.559C326.925 117.175 327.534 109.407 326.509 101.77C325.484 94.1323 322.848 86.7999 318.777 80.2575C314.706 73.7151 309.291 68.1118 302.893 63.8187Z" fill="#003F91"/>
<g opacity="0.15">
<path d="M232.705 22.8976C233.396 25.3806 234.436 27.753 235.793 29.9439C233.521 27.9915 231.49 25.7738 229.745 23.3383C230.725 23.1528 231.712 23.006 232.705 22.8976Z" fill="#0C0D0F"/>
<path d="M198.868 61.2974C196.301 62.6981 193.902 64.3849 191.715 66.3256C195.407 61.959 198.106 56.8417 199.624 51.3282C199.642 51.2619 199.661 51.1953 199.679 51.1289L199.73 50.9413C201.554 44.3609 205.094 38.383 209.986 33.6191L210.37 33.2444L210.642 33.7075C212.141 36.2575 213.936 38.6222 215.989 40.7526C212.843 49.6276 206.723 57.0142 198.868 61.2974Z" fill="#0C0D0F"/>
<path d="M216.944 37.6775L216.893 37.8651C216.875 37.9315 216.856 37.9982 216.838 38.0644C216.737 38.4293 216.629 38.7914 216.518 39.152C215.421 36.3107 214.651 33.3539 214.222 30.3386L214.181 30.0827L214.392 29.9324C217.031 28.0363 219.896 26.4783 222.923 25.2949C220.206 29.0318 218.181 33.2257 216.944 37.6775Z" fill="#0C0D0F"/>
<path d="M181.654 74.5612C183.925 73.318 186.051 71.8257 187.992 70.112C184.115 74.6264 181.336 79.9774 179.872 85.7456C178.409 91.5138 178.301 97.5426 179.557 103.359C180.813 109.176 183.399 114.623 187.112 119.274C190.825 123.924 195.565 127.652 200.96 130.164L201.135 130.245L201.31 130.166C204.224 128.849 207.296 127.916 210.45 127.39C208.481 128.393 206.647 129.639 204.988 131.098L204.427 131.583L205.131 131.816C205.738 132.017 206.346 132.201 206.937 132.365C210.407 133.332 213.995 133.812 217.597 133.792C233.965 133.687 250.46 137.471 266.624 145.039C269.396 146.335 272.271 147.397 275.219 148.216C288.069 151.793 301.786 150.506 313.746 144.601C307.003 152.399 298.186 158.125 288.32 161.112C278.453 164.1 267.941 164.227 258.005 161.479C255.057 160.661 252.182 159.598 249.41 158.303C233.246 150.735 216.751 146.951 200.384 147.056C196.781 147.076 193.193 146.596 189.723 145.629C189.132 145.465 188.525 145.28 187.917 145.08L187.213 144.847L187.774 144.362C189.433 142.903 191.268 141.657 193.236 140.654C190.082 141.18 187.01 142.113 184.096 143.43L183.921 143.508L183.746 143.428C177.267 140.412 171.754 135.656 167.822 129.69C163.889 123.723 161.692 116.781 161.475 109.639C161.258 102.497 163.03 95.4343 166.593 89.2403C170.156 83.0463 175.371 77.9642 181.654 74.5612Z" fill="#0C0D0F"/>
</g>
</g>
<defs>
<clipPath id="clip0_201_2409">
<rect width="327" height="275.897" fill="white"/>
</clipPath>
</defs>
</svg>
